<?xml version="1.0" standalone="no"?>
<!DOCTYPE svg PUBLIC "-//W3C//DTD SVG 20010904//EN"
 "http://www.w3.org/TR/2001/REC-SVG-20010904/DTD/svg10.dtd">
<svg version="1.0" xmlns="http://www.w3.org/2000/svg"
 width="700.000000pt" height="300.000000pt" viewBox="0 0 700.000000 300.000000"
 preserveAspectRatio="xMidYMid meet">

<g transform="translate(0.000000,300.000000) scale(0.100000,-0.100000)"
fill="#000000" stroke="none">
<path d="M3290 2677 c-127 -64 -540 -289 -540 -294 0 -4 198 97 460 235 58 31
115 61 127 66 13 6 23 14 23 19 0 10 3 11 -70 -26z"/>
<path d="M3763 2012 c-167 -86 -303 -160 -303 -164 0 -12 24 0 315 155 251
134 309 167 295 167 -3 0 -141 -71 -307 -158z"/>
<path d="M4464 2034 c-18 -14 -18 -15 4 -4 12 6 22 13 22 15 0 8 -5 6 -26 -11z"/>
<path d="M3625 1879 c-165 -89 -304 -165 -308 -169 -7 -6 170 -110 235 -138 7
-3 175 88 484 264 83 46 120 73 116 82 -3 9 -7 10 -11 3 -4 -7 -13 -3 -24 9
-9 11 -28 20 -42 20 -17 0 -25 6 -25 18 0 13 -2 14 -9 3 -7 -11 -10 -9 -16 8
-3 11 -12 21 -18 22 -44 3 -88 19 -82 30 4 5 5 9 3 9 -2 0 -138 -73 -303 -161z"/>
<path d="M4225 1899 c-115 -66 -231 -133 -257 -147 -44 -25 -60 -42 -39 -42 9
0 490 286 506 301 19 18 -4 6 -210 -112z"/>
<path d="M2675 1683 c6 -6 190 -117 410 -248 220 -131 401 -238 402 -239 1 0
9 -107 18 -236 9 -129 17 -248 19 -265 1 -16 4 92 4 241 2 207 -1 274 -10 281
-10 8 -772 433 -843 471 -7 3 -7 2 0 -5z"/>
<path d="M3695 1611 l-120 -66 -3 -425 c-2 -234 0 -471 3 -527 6 -92 9 -101
26 -100 10 1 19 7 19 14 0 7 9 10 21 8 12 -3 34 4 48 14 25 18 100 47 112 44
11 -3 19 263 19 681 1 230 0 420 -2 421 -2 1 -57 -27 -123 -64z"/>
<path d="M2920 636 c0 -3 9 -10 20 -16 11 -6 20 -8 20 -6 0 3 -9 10 -20 16
-11 6 -20 8 -20 6z"/>
<path d="M2970 606 c0 -3 14 -12 30 -21 17 -9 30 -13 30 -11 0 3 -13 12 -30
21 -16 9 -30 13 -30 11z"/>
<path d="M3040 567 c0 -3 53 -35 118 -73 142 -81 132 -76 132 -70 0 2 -53 35
-117 71 -65 37 -121 70 -125 72 -5 2 -8 2 -8 0z"/>
</g>
</svg>
